<svg width="106" height="23" viewBox="0 0 106 23" fill="none" xmlns="http://www.w3.org/2000/svg">
<path d="M97.2148 17.0001V6.42188H104.589V8.61307H99.7083V14.8089H104.74V17.0001H97.2148ZM98.4238 12.663V10.5776H103.909V12.663H98.4238Z" fill="#F0F0F0"/>
<path d="M85.5843 17.0907C84.7078 17.0907 83.927 16.9144 83.242 16.5618C82.5569 16.1991 82.0179 15.7055 81.625 15.0809C81.2422 14.4563 81.0508 13.741 81.0508 12.935V6.42188H83.65V12.799C83.65 13.1818 83.7356 13.5294 83.9069 13.8417C84.0782 14.144 84.3099 14.3857 84.602 14.5671C84.8942 14.7383 85.2216 14.824 85.5843 14.824C85.9671 14.824 86.3046 14.7383 86.5968 14.5671C86.899 14.3857 87.1408 14.144 87.3221 13.8417C87.5035 13.5294 87.5941 13.1818 87.5941 12.799V6.42188H90.1027V12.935C90.1027 13.741 89.9062 14.4563 89.5133 15.0809C89.1305 15.7055 88.5966 16.1991 87.9115 16.5618C87.2264 16.9144 86.4507 17.0907 85.5843 17.0907Z" fill="#F0F0F0"/>
<path d="M47.2344 17.0001V6.42188H51.9946C52.6695 6.42188 53.2791 6.56795 53.8231 6.86011C54.3772 7.15227 54.8104 7.55525 55.1227 8.06905C55.435 8.57277 55.5911 9.14702 55.5911 9.79178C55.5911 10.4567 55.435 11.0561 55.1227 11.5901C54.8104 12.1139 54.3822 12.527 53.8382 12.8292C53.2942 13.1315 52.6796 13.2826 51.9946 13.2826H49.6825V17.0001H47.2344ZM53.0977 17.0001L50.4078 12.2248L53.0373 11.847L56.0294 17.0001H53.0977ZM49.6825 11.3181H51.7679C52.0298 11.3181 52.2565 11.2627 52.4479 11.1518C52.6494 11.0309 52.8005 10.8647 52.9013 10.6531C53.0121 10.4416 53.0675 10.1998 53.0675 9.92779C53.0675 9.65578 53.007 9.41903 52.8861 9.21754C52.7653 9.00597 52.589 8.84478 52.3572 8.73396C52.1356 8.62315 51.8636 8.56774 51.5412 8.56774H49.6825V11.3181Z" fill="#F0F0F0"/>
<path d="M32.9609 17.0001V6.42188H40.3354V8.61307H35.4544V14.8089H40.4866V17.0001H32.9609ZM34.1699 12.663V10.5776H39.6554V12.663H34.1699Z" fill="#F0F0F0"/>
<path d="M20.6307 17.0001L16.3994 6.42188H19.0742L21.1143 11.8167C21.2352 12.1291 21.3359 12.4011 21.4165 12.6328C21.5072 12.8645 21.5827 13.0811 21.6432 13.2826C21.7137 13.4841 21.7741 13.6906 21.8245 13.9022C21.885 14.1037 21.9504 14.3354 22.021 14.5973H21.5525C21.6331 14.2548 21.7137 13.9525 21.7943 13.6906C21.8749 13.4186 21.9656 13.1415 22.0663 12.8595C22.167 12.5673 22.293 12.2197 22.4441 11.8167L24.4086 6.42188H27.038L22.7765 17.0001H20.6307Z" fill="#F0F0F0"/>
<path d="M6.15007 17.1508C5.34411 17.1508 4.60868 17.0148 3.94376 16.7428C3.27885 16.4708 2.69957 16.0879 2.20592 15.5943C1.71227 15.1006 1.32944 14.5213 1.05743 13.8564C0.785419 13.1915 0.649414 12.4611 0.649414 11.6652C0.649414 10.8694 0.785419 10.139 1.05743 9.47404C1.32944 8.80912 1.71227 8.22984 2.20592 7.73619C2.69957 7.24254 3.27885 6.85971 3.94376 6.5877C4.60868 6.31569 5.33908 6.17969 6.13496 6.17969C6.93084 6.17969 7.66124 6.31569 8.32615 6.5877C8.99107 6.85971 9.57035 7.24254 10.064 7.73619C10.5576 8.22984 10.9354 8.80912 11.1974 9.47404C11.4694 10.139 11.6054 10.8694 11.6054 11.6652C11.6054 12.451 11.4694 13.1814 11.1974 13.8564C10.9354 14.5213 10.5576 15.1006 10.064 15.5943C9.57035 16.0879 8.99107 16.4708 8.32615 16.7428C7.66124 17.0148 6.93588 17.1508 6.15007 17.1508ZM6.13496 14.7329C6.54801 14.7329 6.9258 14.6573 7.26834 14.5062C7.62094 14.3551 7.92318 14.1436 8.17504 13.8715C8.43697 13.5895 8.63846 13.262 8.7795 12.8893C8.92055 12.5165 8.99107 12.1085 8.99107 11.6652C8.99107 11.222 8.92055 10.8139 8.7795 10.4412C8.63846 10.0684 8.43697 9.74605 8.17504 9.47404C7.92318 9.19195 7.62094 8.97535 7.26834 8.82423C6.9258 8.67312 6.54801 8.59756 6.13496 8.59756C5.72191 8.59756 5.33908 8.67312 4.98647 8.82423C4.64394 8.97535 4.3417 9.19195 4.07977 9.47404C3.81783 9.74605 3.61634 10.0684 3.4753 10.4412C3.34433 10.8139 3.27885 11.222 3.27885 11.6652C3.27885 12.1085 3.34433 12.5216 3.4753 12.9044C3.61634 13.2771 3.81783 13.5995 4.07977 13.8715C4.3417 14.1436 4.64394 14.3551 4.98647 14.5062C5.33908 14.6573 5.72191 14.7329 6.13496 14.7329Z" fill="#F0F0F0"/>
<path d="M68.1626 21.7222L59 5.62891L63.7051 7.42319L68.1626 15.3732V21.7222Z" fill="#517294"/>
<path d="M68.1625 21.7222L77.3545 5.62891L72.6343 7.42319L68.1625 15.3732V21.7222Z" fill="#43607D"/>
<path d="M68.1924 2.22266L63.7285 3.82377L68.1924 11.8845V2.22266Z" fill="#7BD8AE"/>
<path d="M68.1924 2.22266L72.6562 3.82377L68.1924 11.8845V2.22266Z" fill="#63BA93"/>
</svg>
