<svg width="326" height="325" viewBox="0 0 326 325" fill="none" xmlns="http://www.w3.org/2000/svg">
<g clip-path="url(#clip0_99_32)">
<rect x="0.5" width="325" height="325" rx="43.4814" fill="#1A1A1A"/>
<path d="M160.686 209.871L90.5 86.5947L126.542 100.339L160.686 161.237V209.871Z" fill="#517294"/>
<path d="M160.686 209.871L231.098 86.5947L194.94 100.339L160.686 161.237V209.871Z" fill="#43607D"/>
<path d="M160.911 60.5L126.718 72.7646L160.911 134.511V60.5Z" fill="#7BD8AE"/>
<path d="M160.911 60.5L195.104 72.7646L160.911 134.511V60.5Z" fill="#63BA93"/>
<path d="M277.748 263.607V235.15H297.587V241.045H284.456V257.713H297.993V263.607H277.748ZM281 251.94V246.33H295.757V251.94H281Z" fill="#F0F0F0"/>
<path d="M246.46 263.851C244.102 263.851 242.001 263.377 240.158 262.428C238.315 261.453 236.865 260.125 235.808 258.444C234.779 256.764 234.264 254.84 234.264 252.672V235.15H241.256V252.306C241.256 253.336 241.486 254.271 241.947 255.111C242.408 255.924 243.031 256.574 243.817 257.062C244.603 257.523 245.484 257.753 246.46 257.753C247.489 257.753 248.397 257.523 249.183 257.062C249.996 256.574 250.647 255.924 251.135 255.111C251.622 254.271 251.866 253.336 251.866 252.306V235.15H258.615V252.672C258.615 254.84 258.086 256.764 257.029 258.444C255.999 260.125 254.563 261.453 252.72 262.428C250.877 263.377 248.79 263.851 246.46 263.851Z" fill="#F0F0F0"/>
<path d="M201.298 263.607L189.915 235.15H197.111L202.599 249.663C202.924 250.504 203.195 251.235 203.412 251.859C203.656 252.482 203.859 253.065 204.022 253.607C204.211 254.149 204.374 254.704 204.509 255.274C204.672 255.816 204.848 256.439 205.038 257.144H203.778C203.994 256.222 204.211 255.409 204.428 254.704C204.645 253.973 204.889 253.227 205.16 252.468C205.431 251.683 205.77 250.748 206.176 249.663L211.461 235.15H218.535L207.071 263.607H201.298Z" fill="#F0F0F0"/>
<path d="M153.82 263.607V235.15H166.626C168.442 235.15 170.081 235.543 171.545 236.329C173.036 237.115 174.201 238.199 175.041 239.582C175.881 240.937 176.301 242.481 176.301 244.216C176.301 246.005 175.881 247.617 175.041 249.054C174.201 250.463 173.049 251.574 171.586 252.387C170.122 253.2 168.469 253.607 166.626 253.607H160.406V263.607H153.82ZM169.594 263.607L162.357 250.761L169.431 249.745L177.48 263.607H169.594ZM160.406 248.322H166.016C166.721 248.322 167.331 248.173 167.846 247.875C168.388 247.55 168.794 247.102 169.065 246.533C169.363 245.964 169.512 245.314 169.512 244.582C169.512 243.85 169.35 243.213 169.024 242.671C168.699 242.102 168.225 241.668 167.602 241.37C167.005 241.072 166.274 240.923 165.406 240.923H160.406V248.322Z" fill="#F0F0F0"/>
<path d="M115.423 263.607V235.15H135.261V241.045H122.131V257.713H135.668V263.607H115.423ZM118.675 251.94V246.33H133.432V251.94H118.675Z" fill="#F0F0F0"/>
<path d="M82.2529 263.607L70.8701 235.15H78.0657L83.5538 249.663C83.879 250.504 84.15 251.235 84.3669 251.859C84.6108 252.482 84.814 253.065 84.9766 253.607C85.1664 254.149 85.329 254.704 85.4645 255.274C85.6271 255.816 85.8033 256.439 85.993 257.144H84.7327C84.9495 256.222 85.1664 255.409 85.3832 254.704C85.6 253.973 85.8439 253.227 86.1149 252.468C86.3859 251.683 86.7247 250.748 87.1312 249.663L92.4161 235.15H99.4897L88.0256 263.607H82.2529Z" fill="#F0F0F0"/>
<path d="M43.2976 264.014C41.1295 264.014 39.151 263.648 37.3623 262.916C35.5736 262.185 34.0152 261.155 32.6872 259.827C31.3592 258.499 30.3294 256.94 29.5976 255.152C28.8659 253.363 28.5 251.398 28.5 249.257C28.5 247.116 28.8659 245.151 29.5976 243.362C30.3294 241.574 31.3592 240.015 32.6872 238.687C34.0152 237.359 35.5736 236.329 37.3623 235.598C39.151 234.866 41.1159 234.5 43.257 234.5C45.398 234.5 47.3629 234.866 49.1516 235.598C50.9404 236.329 52.4987 237.359 53.8267 238.687C55.1547 240.015 56.171 241.574 56.8757 243.362C57.6074 245.151 57.9733 247.116 57.9733 249.257C57.9733 251.371 57.6074 253.336 56.8757 255.152C56.171 256.94 55.1547 258.499 53.8267 259.827C52.4987 261.155 50.9404 262.185 49.1516 262.916C47.3629 263.648 45.4116 264.014 43.2976 264.014ZM43.257 257.509C44.3682 257.509 45.3845 257.306 46.3059 256.9C47.2545 256.493 48.0676 255.924 48.7451 255.192C49.4498 254.433 49.9918 253.553 50.3712 252.55C50.7506 251.547 50.9404 250.449 50.9404 249.257C50.9404 248.064 50.7506 246.967 50.3712 245.964C49.9918 244.961 49.4498 244.094 48.7451 243.362C48.0676 242.603 47.2545 242.021 46.3059 241.614C45.3845 241.208 44.3682 241.004 43.257 241.004C42.1458 241.004 41.1159 241.208 40.1674 241.614C39.2459 242.021 38.4328 242.603 37.7282 243.362C37.0235 244.094 36.4815 244.961 36.1021 245.964C35.7498 246.967 35.5736 248.064 35.5736 249.257C35.5736 250.449 35.7498 251.561 36.1021 252.591C36.4815 253.593 37.0235 254.461 37.7282 255.192C38.4328 255.924 39.2459 256.493 40.1674 256.9C41.1159 257.306 42.1458 257.509 43.257 257.509Z" fill="#F0F0F0"/>
</g>
<defs>
<clipPath id="clip0_99_32">
<rect width="325" height="325" fill="white" transform="translate(0.5)"/>
</clipPath>
</defs>
</svg>
