<svg width="auto" height="auto" viewBox="0 0 325 325" fill="none" xmlns="http://www.w3.org/2000/svg">
<g clip-path="url(#clip0_99_67)">
<path d="M160.186 209.871L90 86.5947L126.042 100.339L160.186 161.237V209.871Z" fill="#517294"/>
<path d="M160.186 209.871L230.598 86.5947L194.44 100.339L160.186 161.237V209.871Z" fill="#43607D"/>
<path d="M160.411 60.5L126.218 72.7646L160.411 134.511V60.5Z" fill="#7BD8AE"/>
<path d="M160.411 60.5L194.604 72.7646L160.411 134.511V60.5Z" fill="#63BA93"/>
<path d="M277.248 263.607V235.15H297.087V241.045H283.956V257.713H297.493V263.607H277.248ZM280.5 251.94V246.33H295.257V251.94H280.5Z" fill="#F0F0F0"/>
<path d="M245.96 263.851C243.602 263.851 241.501 263.377 239.658 262.428C237.815 261.453 236.365 260.125 235.308 258.444C234.279 256.764 233.764 254.84 233.764 252.672V235.15H240.756V252.306C240.756 253.336 240.986 254.271 241.447 255.111C241.908 255.924 242.531 256.574 243.317 257.062C244.103 257.523 244.984 257.753 245.96 257.753C246.989 257.753 247.897 257.523 248.683 257.062C249.496 256.574 250.147 255.924 250.635 255.111C251.122 254.271 251.366 253.336 251.366 252.306V235.15H258.115V252.672C258.115 254.84 257.586 256.764 256.529 258.444C255.499 260.125 254.063 261.453 252.22 262.428C250.377 263.377 248.29 263.851 245.96 263.851Z" fill="#F0F0F0"/>
<path d="M200.798 263.607L189.415 235.15H196.611L202.099 249.663C202.424 250.504 202.695 251.235 202.912 251.859C203.156 252.482 203.359 253.065 203.522 253.607C203.711 254.149 203.874 254.704 204.009 255.274C204.172 255.816 204.348 256.439 204.538 257.144H203.278C203.494 256.222 203.711 255.409 203.928 254.704C204.145 253.973 204.389 253.227 204.66 252.468C204.931 251.683 205.27 250.748 205.676 249.663L210.961 235.15H218.035L206.571 263.607H200.798Z" fill="#F0F0F0"/>
<path d="M153.32 263.607V235.15H166.126C167.942 235.15 169.581 235.543 171.045 236.329C172.536 237.115 173.701 238.199 174.541 239.582C175.381 240.937 175.801 242.481 175.801 244.216C175.801 246.005 175.381 247.617 174.541 249.054C173.701 250.463 172.549 251.574 171.086 252.387C169.622 253.2 167.969 253.607 166.126 253.607H159.906V263.607H153.32ZM169.094 263.607L161.857 250.761L168.931 249.745L176.98 263.607H169.094ZM159.906 248.322H165.516C166.221 248.322 166.831 248.173 167.346 247.875C167.888 247.55 168.294 247.102 168.565 246.533C168.863 245.964 169.012 245.314 169.012 244.582C169.012 243.85 168.85 243.213 168.524 242.671C168.199 242.102 167.725 241.668 167.102 241.37C166.505 241.072 165.774 240.923 164.906 240.923H159.906V248.322Z" fill="#F0F0F0"/>
<path d="M114.923 263.607V235.15H134.761V241.045H121.631V257.713H135.168V263.607H114.923ZM118.175 251.94V246.33H132.932V251.94H118.175Z" fill="#F0F0F0"/>
<path d="M81.7529 263.607L70.3701 235.15H77.5657L83.0538 249.663C83.379 250.504 83.65 251.235 83.8669 251.859C84.1108 252.482 84.314 253.065 84.4766 253.607C84.6664 254.149 84.829 254.704 84.9645 255.274C85.1271 255.816 85.3033 256.439 85.493 257.144H84.2327C84.4495 256.222 84.6664 255.409 84.8832 254.704C85.1 253.973 85.3439 253.227 85.6149 252.468C85.8859 251.683 86.2247 250.748 86.6312 249.663L91.9161 235.15H98.9897L87.5256 263.607H81.7529Z" fill="#F0F0F0"/>
<path d="M42.7976 264.014C40.6295 264.014 38.651 263.648 36.8623 262.916C35.0736 262.185 33.5152 261.155 32.1872 259.827C30.8592 258.499 29.8294 256.94 29.0976 255.152C28.3659 253.363 28 251.398 28 249.257C28 247.116 28.3659 245.151 29.0976 243.362C29.8294 241.574 30.8592 240.015 32.1872 238.687C33.5152 237.359 35.0736 236.329 36.8623 235.598C38.651 234.866 40.6159 234.5 42.757 234.5C44.898 234.5 46.8629 234.866 48.6516 235.598C50.4404 236.329 51.9987 237.359 53.3267 238.687C54.6547 240.015 55.671 241.574 56.3757 243.362C57.1074 245.151 57.4733 247.116 57.4733 249.257C57.4733 251.371 57.1074 253.336 56.3757 255.152C55.671 256.94 54.6547 258.499 53.3267 259.827C51.9987 261.155 50.4404 262.185 48.6516 262.916C46.8629 263.648 44.9116 264.014 42.7976 264.014ZM42.757 257.509C43.8682 257.509 44.8845 257.306 45.8059 256.9C46.7545 256.493 47.5676 255.924 48.2451 255.192C48.9498 254.433 49.4918 253.553 49.8712 252.55C50.2506 251.547 50.4404 250.449 50.4404 249.257C50.4404 248.064 50.2506 246.967 49.8712 245.964C49.4918 244.961 48.9498 244.094 48.2451 243.362C47.5676 242.603 46.7545 242.021 45.8059 241.614C44.8845 241.208 43.8682 241.004 42.757 241.004C41.6458 241.004 40.6159 241.208 39.6674 241.614C38.7459 242.021 37.9328 242.603 37.2282 243.362C36.5235 244.094 35.9815 244.961 35.6021 245.964C35.2498 246.967 35.0736 248.064 35.0736 249.257C35.0736 250.449 35.2498 251.561 35.6021 252.591C35.9815 253.593 36.5235 254.461 37.2282 255.192C37.9328 255.924 38.7459 256.493 39.6674 256.9C40.6159 257.306 41.6458 257.509 42.757 257.509Z" fill="#F0F0F0"/>
</g>
<defs>
<clipPath id="clip0_99_67">
<rect width="325" height="325" fill="white"/>
</clipPath>
</defs>
</svg>
